<svg width="2935" height="1072" viewBox="0 0 2935 1072" fill="none" xmlns="http://www.w3.org/2000/svg">
<path d="M2005.5 429C2005.5 429 2000.5 398.5 2000.5 385C2000.5 371.5 2038 279 2023.5 265C2009 251 1962.5 242.5 1961.5 242.5C1960.5 242.5 1968 215.5 1958.5 211C1949 206.5 1850 173.5 1850 173.5L1885.5 76.9998L1914 71.9998C1914 71.9998 1907.5 91.9998 1919.5 91.9998C1931.5 91.9998 2058 65.9928 2071 60.4999C2084 55.0069 2111.97 5.49989 2106.5 5.49988C2101.03 5.49987 1952.5 3.52427 1934.5 5.49987C1916.5 7.47548 1811.93 35.9053 1804.5 40.9998C1787 52.9998 1747.5 130.5 1747.5 130.5C1747.5 130.5 1434 24 1308.5 28C1183 32 1075.5 81.5 1010.5 109.5C945.5 137.5 876.5 169 876.5 169M357 462.5C357 441 387.5 425 390 417.5C392.5 410 357 334 400.5 316C444 298 438 302.5 478 287.5C518 272.5 556 208.019 618 199.5L916 192.5" stroke="#C30000" stroke-width="5"/>
<path d="M1312 32C1180 38.5 1075.07 84.0284 1010.5 113.011C945.932 141.994 877.418 174.537 877.418 174.537" stroke="#C30000" stroke-width="5"/>
<path d="M1759 143.5L1807.87 55L1908 26L1903.59 80.5L1860.34 186L1759 143.5Z" fill="#C30000" stroke="#C30000" stroke-width="15"/>
<path d="M1912 36L1949 42L1938.5 78.5L1912 74.5L1929.5 64.5L1915 61L1938.5 53.5L1934 46H1918L1912 42" stroke="#C30000" stroke-width="15"/>
<path d="M626 200.878C564 209.397 526 273.878 486 288.878C446 303.878 452 299.378 408.5 317.378C365 335.378 400.5 411.378 398 418.878C395.5 426.378 365 442.378 365 463.878M1305 32.878C1455 32.878 1755.5 131.878 1755.5 131.878C1755.5 131.878 1795 54.3779 1812.5 42.3779C1819.93 37.2835 1924.5 8.85365 1942.5 6.87805C1960.5 4.90244 2109.03 6.87805 2114.5 6.87806C2119.97 6.87807 2092 56.3851 2079 61.8781C2066 67.371 1939.5 93.378 1927.5 93.378C1915.5 93.378 1922 73.378 1922 73.378L1893.5 78.378L1858 174.878C1858 174.878 1957 207.878 1966.5 212.378C1976 216.878 1968.5 243.878 1969.5 243.878C1970.5 243.878 2017 252.378 2031.5 266.378C2046 280.378 2008.5 372.878 2008.5 386.378C2008.5 399.878 2013.5 430.378 2013.5 430.378" stroke="#C30000" stroke-width="10"/>
<path d="M618 199.878C556 208.397 518 272.878 478 287.878C438 302.878 444 298.378 400.5 316.378C357 334.378 392.5 410.378 390 417.878C387.5 425.378 357 441.378 357 462.878M1297 31.878C1447 31.878 1747.5 130.878 1747.5 130.878C1747.5 130.878 1787 53.3779 1804.5 41.3779C1811.93 36.2835 1916.5 7.85365 1934.5 5.87805C1952.5 3.90244 2101.03 5.87805 2106.5 5.87806C2111.97 5.87807 2084 55.3851 2071 60.8781C2058 66.371 1931.5 92.378 1919.5 92.378C1907.5 92.378 1914 72.378 1914 72.378L1885.5 77.378L1850 173.878C1850 173.878 1949 206.878 1958.5 211.378C1968 215.878 1960.5 242.878 1961.5 242.878C1962.5 242.878 2009 251.378 2023.5 265.378C2038 279.378 2000.5 371.878 2000.5 385.378C2000.5 398.878 2005.5 429.378 2005.5 429.378" stroke="#C30000" stroke-width="10"/>
<path d="M634 199.878C572 208.397 534 272.878 494 287.878C454 302.878 460 298.378 416.5 316.378C373 334.378 408.5 410.378 406 417.878C403.5 425.378 373 441.378 373 462.878M1313 31.878C1463 31.878 1763.5 130.878 1763.5 130.878C1763.5 130.878 1803 53.3779 1820.5 41.3779C1827.93 36.2835 1932.5 7.85365 1950.5 5.87805C1968.5 3.90244 2117.03 5.87805 2122.5 5.87806C2127.97 5.87807 2100 55.3851 2087 60.8781C2074 66.371 1947.5 92.378 1935.5 92.378C1923.5 92.378 1930 72.378 1930 72.378L1901.5 77.378L1866 173.878C1866 173.878 1965 206.878 1974.5 211.378C1984 215.878 1976.5 242.878 1977.5 242.878C1978.5 242.878 2025 251.378 2039.5 265.378C2054 279.378 2016.5 371.878 2016.5 385.378C2016.5 398.878 2021.5 429.378 2021.5 429.378" stroke="#C30000" stroke-width="10"/>
<path d="M1898.5 88.5C1898.5 88.5 1925 95 1939 95.5C1953 96 2048.5 73.5 2048.5 73.5" stroke="#C30000" stroke-width="10"/>
<path d="M643 199.5C597.5 202.5 542 273.878 502 288.878C462 303.878 468 299.378 424.5 317.378C381 335.378 416.5 411.378 414 418.878C411.5 426.378 381 442.378 381 463.878M1321 32.878C1471 32.878 1771.5 131.878 1771.5 131.878C1771.5 131.878 1811 54.3779 1828.5 42.3779C1835.93 37.2835 1940.5 8.85365 1958.5 6.87805C1976.5 4.90244 2125.03 6.87805 2130.5 6.87806C2135.97 6.87807 2108 56.3851 2095 61.8781C2082 67.371 1955.5 93.378 1943.5 93.378C1931.5 93.378 1938 73.378 1938 73.378L1909.5 78.378L1874 174.878C1874 174.878 1973 207.878 1982.5 212.378C1992 216.878 1984.5 243.878 1985.5 243.878C1986.5 243.878 2033 252.378 2047.5 266.378C2062 280.378 2024.5 372.878 2024.5 386.378C2024.5 399.878 2029.5 430.378 2029.5 430.378" stroke="#C30000" stroke-width="10"/>
<path d="M642.089 202.124L683.425 196.337" stroke="#C30000" stroke-width="5"/>
<path d="M214.5 197.5C214.5 197.5 275.5 200.125 279 197.5C282.5 194.875 285.5 164 285.5 161C285.5 158 532.5 158 538.5 158C544.5 158 535 119.5 548.5 119.5C562 119.5 742 119.5 746.5 119.5C751 119.5 748 136 758 136C768 136 855.5 135.5 858.5 140C861.5 144.5 857.5 175.5 869 175.5C880.5 175.5 892 176 907 169.5C922 163 1177 42 1291 42C1405 42 1517.43 77.002 1645 113C1758 144.886 1892 202.5 1946.5 210.5C2001 218.5 2268.5 227.567 2649.5 244.5C3030.5 261.433 3068 385.5 2422 489C1776 592.5 749.5 553.5 97.5 559" stroke="black" stroke-width="20"/>
<path d="M2553 244.5C2934 261.433 2971.5 385.5 2325.5 489C1679.5 592.5 653 553.5 1 559" stroke="black" stroke-width="20"/>
<path d="M2629.66 245C3010.16 261.918 3047.61 385.87 2402.45 489.274C1757.3 592.679 732.146 553.715 81 559.21" stroke="black" stroke-width="20"/>
<path d="M2579.1 245C2952.05 261.918 2988.76 385.87 2356.4 489.274C1724.05 592.679 719.229 553.715 81 559.21" stroke="black" stroke-width="20"/>
<path d="M617 197.5L915 193" stroke="#C30000" stroke-width="5"/>
<path d="M2615.1 245C2988.05 261.918 3024.76 385.87 2392.4 489.274C1760.05 592.679 755.229 553.715 117 559.21" stroke="black" stroke-width="20"/>
<path d="M2600.65 245C2971.45 261.918 3007.94 385.87 2379.25 489.274C1750.55 592.679 751.538 553.715 117 559.21" stroke="black" stroke-width="20"/>
<path d="M1563 463C1563 307.386 1647.09 258 1727.07 258C1805.3 258 1887 303.779 1887 463" stroke="#C30000" stroke-width="12"/>
<path d="M574 464C574 313 655.234 265.078 732.5 265.078C808.078 265.078 887 309.5 887 464" stroke="#C30000" stroke-width="10"/>
<path d="M2588 249L2290.5 231M556.5 128C556.5 128 558.5 166 549.5 169.5C540.5 173 300.5 166 294 168.5C287.5 171 288 209.5 285.5 211.5C283 213.5 235.667 214.333 214 213.5" stroke="black" stroke-width="15"/>
<path d="M349.754 761L367.754 725.25L349.754 689.25C352.004 689.25 401.504 689.25 403.504 689.25L421.504 725.25C420.004 728.25 387.254 793.75 385.754 797C383.754 797 265.004 797 260.004 797L242.254 761L296.004 653.5L278.004 617.5C284.754 617.5 450.004 617.5 457.504 617.5L439.504 653.5H349.754L296.004 761H349.754ZM635.061 617.5L653.061 653.5C652.061 655.5 582.061 795 581.311 797C579.311 797 460.561 797 455.561 797L437.811 761L491.561 653.5L473.561 617.5C480.561 617.5 627.811 617.5 635.061 617.5ZM545.311 761L599.061 653.5H545.311L491.561 761H545.311ZM756.676 725.25L792.676 761L774.676 797C772.176 797 614.926 797 613.176 797L684.926 653.5L667.176 617.75C671.176 617.75 752.926 617.75 756.676 617.75L684.926 761.25H738.926L756.676 725.25ZM1013.25 653.5H923.496L905.496 689.25H977.246L959.246 725.25H887.496L851.746 797H797.996L869.746 653.5L851.746 617.5C858.246 617.5 1023.75 617.5 1031 617.5L1013.25 653.5ZM1206.35 617.5L1224.35 653.5C1223.35 655.5 1153.35 795 1152.6 797C1150.6 797 1031.85 797 1026.85 797L1009.1 761L1062.85 653.5L1044.85 617.5C1051.85 617.5 1199.1 617.5 1206.35 617.5ZM1116.6 761L1170.35 653.5H1116.6L1062.85 761H1116.6ZM1271.46 831.5H1199.71H1145.96L1163.96 795.75H1289.46L1271.46 831.5ZM1549.73 617.5H1603.48L1513.73 797H1459.98L1495.73 725.25L1423.98 797H1388.23V725.25L1352.23 797C1350.23 797 1300.73 797 1298.48 797L1370.23 653.5L1352.23 617.5C1356.48 617.5 1438.23 617.5 1441.98 617.5V725.25L1549.73 617.5ZM1617.12 617.5C1621.37 617.5 1703.12 617.5 1706.87 617.5L1617.12 797H1563.37L1635.12 653.5L1617.12 617.5ZM1882.39 617.5L1900.14 653.5C1899.39 655.5 1829.39 795 1828.39 797C1826.89 797 1670.89 797 1667.14 797L1738.89 653.5L1720.89 617.5C1727.89 617.5 1875.14 617.5 1882.39 617.5ZM1792.64 761L1846.39 653.5H1792.64L1738.89 761H1792.64ZM2057.99 617.5H2111.74L2022.24 797H1968.24L1952.99 720L1914.49 797C1912.24 797 1862.99 797 1860.74 797L1932.49 653.5L1914.49 617.5C1916.49 617.5 1985.74 617.5 1986.24 617.5L2006.74 720L2057.99 617.5ZM2125.67 617.5C2129.92 617.5 2211.67 617.5 2215.42 617.5L2125.67 797H2071.92L2143.67 653.5L2125.67 617.5ZM2300.68 761L2318.68 725.25L2300.68 689.25C2302.93 689.25 2352.43 689.25 2354.43 689.25L2372.43 725.25C2370.93 728.25 2338.18 793.75 2336.68 797C2334.68 797 2215.93 797 2210.93 797L2193.18 761L2246.93 653.5L2228.93 617.5C2235.68 617.5 2400.93 617.5 2408.43 617.5L2390.43 653.5H2300.68L2246.93 761H2300.68ZM2568.49 617.5H2622.24C2621.24 619.75 2533.49 795.25 2532.74 797H2478.74L2514.74 725.25H2460.99L2424.99 797H2371.24L2442.99 653.5L2424.99 617.5C2428.99 617.5 2510.99 617.5 2514.74 617.5L2478.74 689.25H2532.74C2534.24 686.25 2566.99 620.75 2568.49 617.5ZM2847.66 617.5L2829.91 653.5H2758.16L2686.41 797H2632.66L2704.41 653.5H2650.41L2632.66 617.5C2635.41 617.5 2847.16 617.5 2847.66 617.5ZM1672.04 892.5H1725.79L1636.04 1072H1582.29L1618.04 1000.25L1546.29 1072H1510.54V1000.25L1474.54 1072C1472.54 1072 1423.04 1072 1420.79 1072L1492.54 928.5L1474.54 892.5C1478.79 892.5 1560.54 892.5 1564.29 892.5V1000.25L1672.04 892.5ZM1900.69 928.5H1810.94L1792.94 964.25H1864.69L1846.94 1000.25H1775.19L1757.19 1036H1846.94L1828.94 1072C1826.69 1072 1724.69 1072 1721.19 1072L1703.44 1036.25L1757.19 928.5L1739.19 892.5C1745.69 892.5 1911.19 892.5 1918.69 892.5L1900.69 928.5ZM2093.8 928.5H2004.05L1986.05 964.25H2057.8L2040.05 1000.25H1968.3L1950.3 1036H2040.05L2022.05 1072C2019.8 1072 1917.8 1072 1914.3 1072L1896.55 1036.25L1950.3 928.5L1932.3 892.5C1938.8 892.5 2104.3 892.5 2111.8 892.5L2093.8 928.5ZM2337.17 892.5L2319.42 928.5H2247.67L2175.92 1072H2122.17L2193.92 928.5H2139.92L2122.17 892.5C2124.92 892.5 2336.67 892.5 2337.17 892.5ZM2351.25 892.5C2355.5 892.5 2437.25 892.5 2441 892.5L2351.25 1072H2297.5L2369.25 928.5L2351.25 892.5ZM2598.52 892.5H2652.27L2562.77 1072H2508.77L2493.52 995L2455.02 1072C2452.77 1072 2403.52 1072 2401.27 1072L2473.02 928.5L2455.02 892.5C2457.02 892.5 2526.27 892.5 2526.77 892.5L2547.27 995L2598.52 892.5ZM2737.69 1036L2755.69 1000.25L2737.69 964.25C2739.94 964.25 2789.44 964.25 2791.44 964.25L2809.44 1000.25C2807.94 1003.25 2775.19 1068.75 2773.69 1072C2771.69 1072 2652.94 1072 2647.94 1072L2630.19 1036L2683.94 928.5L2665.94 892.5C2672.69 892.5 2837.94 892.5 2845.44 892.5L2827.44 928.5H2737.69L2683.94 1036H2737.69Z" fill="#C30000"/>
<path d="M362.754 761L380.754 725.25L362.754 689.25C365.004 689.25 414.504 689.25 416.504 689.25L434.504 725.25C433.004 728.25 400.254 793.75 398.754 797C396.754 797 278.004 797 273.004 797L255.254 761L309.004 653.5L291.004 617.5C297.754 617.5 463.004 617.5 470.504 617.5L452.504 653.5H362.754L309.004 761H362.754ZM648.061 617.5L666.061 653.5C665.061 655.5 595.061 795 594.311 797C592.311 797 473.561 797 468.561 797L450.811 761L504.561 653.5L486.561 617.5C493.561 617.5 640.811 617.5 648.061 617.5ZM558.311 761L612.061 653.5H558.311L504.561 761H558.311ZM769.676 725.25L805.676 761L787.676 797C785.176 797 627.926 797 626.176 797L697.926 653.5L680.176 617.75C684.176 617.75 765.926 617.75 769.676 617.75L697.926 761.25H751.926L769.676 725.25ZM1026.25 653.5H936.496L918.496 689.25H990.246L972.246 725.25H900.496L864.746 797H810.996L882.746 653.5L864.746 617.5C871.246 617.5 1036.75 617.5 1044 617.5L1026.25 653.5ZM1219.35 617.5L1237.35 653.5C1236.35 655.5 1166.35 795 1165.6 797C1163.6 797 1044.85 797 1039.85 797L1022.1 761L1075.85 653.5L1057.85 617.5C1064.85 617.5 1212.1 617.5 1219.35 617.5ZM1129.6 761L1183.35 653.5H1129.6L1075.85 761H1129.6ZM1284.46 831.5H1212.71H1158.96L1176.96 795.75H1302.46L1284.46 831.5ZM1562.73 617.5H1616.48L1526.73 797H1472.98L1508.73 725.25L1436.98 797H1401.23V725.25L1365.23 797C1363.23 797 1313.73 797 1311.48 797L1383.23 653.5L1365.23 617.5C1369.48 617.5 1451.23 617.5 1454.98 617.5V725.25L1562.73 617.5ZM1630.12 617.5C1634.37 617.5 1716.12 617.5 1719.87 617.5L1630.12 797H1576.37L1648.12 653.5L1630.12 617.5ZM1895.39 617.5L1913.14 653.5C1912.39 655.5 1842.39 795 1841.39 797C1839.89 797 1683.89 797 1680.14 797L1751.89 653.5L1733.89 617.5C1740.89 617.5 1888.14 617.5 1895.39 617.5ZM1805.64 761L1859.39 653.5H1805.64L1751.89 761H1805.64ZM2070.99 617.5H2124.74L2035.24 797H1981.24L1965.99 720L1927.49 797C1925.24 797 1875.99 797 1873.74 797L1945.49 653.5L1927.49 617.5C1929.49 617.5 1998.74 617.5 1999.24 617.5L2019.74 720L2070.99 617.5ZM2138.67 617.5C2142.92 617.5 2224.67 617.5 2228.42 617.5L2138.67 797H2084.92L2156.67 653.5L2138.67 617.5ZM2313.68 761L2331.68 725.25L2313.68 689.25C2315.93 689.25 2365.43 689.25 2367.43 689.25L2385.43 725.25C2383.93 728.25 2351.18 793.75 2349.68 797C2347.68 797 2228.93 797 2223.93 797L2206.18 761L2259.93 653.5L2241.93 617.5C2248.68 617.5 2413.93 617.5 2421.43 617.5L2403.43 653.5H2313.68L2259.93 761H2313.68ZM2581.49 617.5H2635.24C2634.24 619.75 2546.49 795.25 2545.74 797H2491.74L2527.74 725.25H2473.99L2437.99 797H2384.24L2455.99 653.5L2437.99 617.5C2441.99 617.5 2523.99 617.5 2527.74 617.5L2491.74 689.25H2545.74C2547.24 686.25 2579.99 620.75 2581.49 617.5ZM2860.66 617.5L2842.91 653.5H2771.16L2699.41 797H2645.66L2717.41 653.5H2663.41L2645.66 617.5C2648.41 617.5 2860.16 617.5 2860.66 617.5ZM1685.04 892.5H1738.79L1649.04 1072H1595.29L1631.04 1000.25L1559.29 1072H1523.54V1000.25L1487.54 1072C1485.54 1072 1436.04 1072 1433.79 1072L1505.54 928.5L1487.54 892.5C1491.79 892.5 1573.54 892.5 1577.29 892.5V1000.25L1685.04 892.5ZM1913.69 928.5H1823.94L1805.94 964.25H1877.69L1859.94 1000.25H1788.19L1770.19 1036H1859.94L1841.94 1072C1839.69 1072 1737.69 1072 1734.19 1072L1716.44 1036.25L1770.19 928.5L1752.19 892.5C1758.69 892.5 1924.19 892.5 1931.69 892.5L1913.69 928.5ZM2106.8 928.5H2017.05L1999.05 964.25H2070.8L2053.05 1000.25H1981.3L1963.3 1036H2053.05L2035.05 1072C2032.8 1072 1930.8 1072 1927.3 1072L1909.55 1036.25L1963.3 928.5L1945.3 892.5C1951.8 892.5 2117.3 892.5 2124.8 892.5L2106.8 928.5ZM2350.17 892.5L2332.42 928.5H2260.67L2188.92 1072H2135.17L2206.92 928.5H2152.92L2135.17 892.5C2137.92 892.5 2349.67 892.5 2350.17 892.5ZM2364.25 892.5C2368.5 892.5 2450.25 892.5 2454 892.5L2364.25 1072H2310.5L2382.25 928.5L2364.25 892.5ZM2611.52 892.5H2665.27L2575.77 1072H2521.77L2506.52 995L2468.02 1072C2465.77 1072 2416.52 1072 2414.27 1072L2486.02 928.5L2468.02 892.5C2470.02 892.5 2539.27 892.5 2539.77 892.5L2560.27 995L2611.52 892.5ZM2750.69 1036L2768.69 1000.25L2750.69 964.25C2752.94 964.25 2802.44 964.25 2804.44 964.25L2822.44 1000.25C2820.94 1003.25 2788.19 1068.75 2786.69 1072C2784.69 1072 2665.94 1072 2660.94 1072L2643.19 1036L2696.94 928.5L2678.94 892.5C2685.69 892.5 2850.94 892.5 2858.44 892.5L2840.44 928.5H2750.69L2696.94 1036H2750.69Z" fill="black"/>
<path d="M1761 133.255L1812 49.7074L1886 38.7545L1931.5 53.2545" stroke="#C30000" stroke-width="25"/>
<path d="M352 465L386 465" stroke="#C30000" stroke-width="7"/>
<path d="M2000.5 430.5L2033 429.5L2032 424" stroke="#C30000" stroke-width="3"/>
</svg>
